<svg width="122" height="50" fill="none" xmlns="http://www.w3.org/2000/svg"><path d="M13.082 27.49a8.43 8.43 0 00.699.681l-.7-.68zm0 0a8.43 8.43 0 00.699.681l-.7-.68zm0 0a8.43 8.43 0 00.699.681l-.7-.68z" fill="#FF843F"/><path d="M42.641 19.116a20.967 20.967 0 00-3.768-10.06 21.257 21.257 0 00-8.314-6.971A21.42 21.42 0 003.058 10.26a21.07 21.07 0 00-2.956 8.856 20.746 20.746 0 001.156 9.169 20.98 20.98 0 005.027 7.79l13.329 13.19c.48.475 1.13.739 1.806.735a2.552 2.552 0 001.788-.734 2.457 2.457 0 000-3.498l-1.806-1.806L9.837 32.523a16.128 16.128 0 01-3.823-5.96 15.93 15.93 0 01-.91-6.947 16.188 16.188 0 012.264-6.803 16.38 16.38 0 0127.995 0 16.189 16.189 0 012.275 6.773A16 16 0 0132.937 32.6l-.946.934-3.48 3.642-4.816-4.852L18 26.629c-.229-.229-.481-.433-.728-.644a6.11 6.11 0 01-2.06-5.9 6.17 6.17 0 011.717-3.203 6.32 6.32 0 019.668.94 6.147 6.147 0 01-.054 6.977c-.073.11-.153.214-.24.313a2.487 2.487 0 00.004 2.764 2.522 2.522 0 003.866.409c.171-.18.317-.383.434-.602a11.06 11.06 0 00-1.282-14.286A11.396 11.396 0 0015.044 12a11.204 11.204 0 00-4.167 5.015 11.071 11.071 0 002.137 11.854l.699.68 11.18 10.897 1.45 1.397a3.01 3.01 0 004.257 0l1.54-1.482 3.408-3.389.91-.903a20.98 20.98 0 005.026-7.79 20.745 20.745 0 001.156-9.163z" fill="#FF843F"/><path d="M64.296 13.788h3.612v6.02a10.835 10.835 0 01-6.098 1.843c-4.63 0-8.02-3.131-8.02-7.556 0-4.425 3.402-7.55 8.116-7.55 2.721 0 4.925.934 6.357 2.656l-2.642 2.372a4.526 4.526 0 00-3.528-1.626 3.913 3.913 0 00-4.154 4.154 3.938 3.938 0 004.112 4.154 5.233 5.233 0 002.221-.476l.024-3.991zm20.409 7.579l-.042-7.7-3.739 6.268h-1.806l-3.732-6.063v7.495h-3.8V6.835h3.384l5.1 8.386 4.984-8.386h3.384l.06 14.532h-3.793zm10.818-11.269h-4.46V6.835h13.015v3.263h-4.443v11.27h-4.112v-11.27zM54.561 31.753h4.106v14.532h-4.106V31.753zm21.896 0v14.532h-3.383l-6.412-7.73v7.73h-4.051V31.753h3.383l6.418 7.742v-7.742h4.045zm3.949 0h6.888c4.816 0 8.115 2.799 8.115 7.266 0 4.467-3.3 7.266-8.115 7.266h-6.888V31.753zm6.707 11.251c2.474 0 4.136-1.475 4.136-3.985s-1.662-3.985-4.136-3.985h-2.595v7.97h2.595zM98.6 31.753h4.105v14.532H98.6V31.753zm17.807 11.709h-6.14l-1.144 2.823h-4.214l6.465-14.532h4.046l6.442 14.532h-4.281l-1.174-2.823zm-1.204-3.01l-1.866-4.648-1.866 4.648h3.732z" fill="#000"/></svg>